<svg xmlns="http://www.w3.org/2000/svg" viewBox="0 0 107.5 35.7" enable-background="new 0 0 107.5 35.7"><path fill="#fff" stroke="#000" d="M148.9 4l15.1 26.3s4.1 6.7 11.3 4.2c6.5-2.5 9.2-3.7 9.2-3.7l-15.3-25.5s-3.8-6.7-12-4.3c-7.4 2.4-8.3 3-8.3 3z"/><path fill="#fff" stroke="#000" d="M216.2 34s-.1-4.5-1-8.1c-1.7-6.2-9.4-5.3-12-5.3h-3.5l-9.5-14.9s-3.8-6.7-12-4.3c-7.4 2.5-6.9 2.6-6.9 2.6l14.7 25.1s2.5 4.8 9.8 4.8h20.4z"/><path d="M17 4l15.2 26.3s4.1 6.7 11.3 4.2c6.1-2.6 8.1-3.7 8.1-3.7l-15.4-25.5s-3.8-6.7-12-4.3c-6 2.2-7.2 3-7.2 3zM40.3 35.6c-5.5 0-8.4-4.8-8.6-5l-15.4-26.8.4-.3c.1 0 1.3-.8 7.3-3 1.3-.3 2.4-.5 3.6-.5 6.1 0 9 4.9 9.1 5.1l15.6 25.8-.5.3c-.1 0-2.1 1.2-8.1 3.8-1.2.4-2.3.6-3.4.6zm-22.7-31.4l14.9 25.9s2.8 4.5 7.7 4.5c1 0 2-.2 3-.5 4.4-1.9 6.7-3 7.5-3.5l-15.1-25c0-.1-2.7-4.6-8.2-4.6-1 0-2.1.2-3.2.5-4 1.5-5.8 2.3-6.6 2.7z"/><path stroke="#000" d="M39 4l15.9 26.3s4.1 6.7 11.3 4.2c6.1-2.6 7.4-3.7 7.4-3.7l-15.4-25.5s-3.8-6.7-12-4.3c-6 2.2-7.2 3-7.2 3z"/><path stroke="#000" d="M107.5 30.4c0-8.5-8-8.2-10.7-8.2h-7.9l-10.2-16.5s-3.8-7-12-4.7c-4.2 1.5-5.7 3-5.7 3l16.2 26.3s2.9 4.7 8 4.8h22.4c-.1-.6-.1-2.2-.1-4.7z"/><path d="M16.8 3.8l-16.1 27.6s7.7 4.9 13.6 3.5c5.8-1.4 12-14.7 12-14.7l-9.5-16.4z" fill="none"/><path d="M12 35.7c-5.5 0-11.3-3.7-11.6-3.8l-.4-.3 16.3-27.8.8-.4 9.7 16.8-.1.2c-.3.6-6.3 13.6-12.3 15-.8.2-1.6.3-2.4.3zm-10.6-4.4c1.4.8 6.3 3.4 10.6 3.4.8 0 1.5-.1 2.1-.2 5.1-1.2 10.7-12.5 11.5-14.2l-8.8-15.5-15.4 26.5z"/></svg>